<svg xmlns="http://www.w3.org/2000/svg" width="80" height="80" viewBox="0 0 80 80" fill="none">
  <!-- Moroccan Geometric Zellige Star Pattern -->
  <path d="M40 0 L48 24 L72 32 L48 40 L40 64 L32 40 L8 32 L32 24 Z" stroke="#D4AF37" stroke-width="1.5" stroke-opacity="0.25" fill="none"/>
  <path d="M40 16 L44 28 L56 32 L44 36 L40 48 L36 36 L24 32 L36 28 Z" stroke="#8B5CF6" stroke-width="1" stroke-opacity="0.15" fill="none"/>
  
  <!-- Intersecting diamonds and borders -->
  <rect x="0" y="0" width="80" height="80" stroke="#D4AF37" stroke-width="1" stroke-opacity="0.1" fill="none"/>
  <path d="M0 40 L40 80 L80 40 L40 0 Z" stroke="#D4AF37" stroke-width="1" stroke-opacity="0.15" fill="none"/>
  
  <!-- Corner stars -->
  <path d="M0 0 L8 8 L0 16 L-8 8 Z" stroke="#D4AF37" stroke-width="1" stroke-opacity="0.2" fill="none"/>
  <path d="M80 0 L88 8 L80 16 L72 8 Z" stroke="#D4AF37" stroke-width="1" stroke-opacity="0.2" fill="none"/>
  <path d="M0 80 L8 88 L0 96 L-8 88 Z" stroke="#D4AF37" stroke-width="1" stroke-opacity="0.2" fill="none"/>
  <path d="M80 80 L88 88 L80 96 L72 88 Z" stroke="#D4AF37" stroke-width="1" stroke-opacity="0.2" fill="none"/>

  <!-- Small star in center of corners -->
  <circle cx="40" cy="40" r="3" stroke="#D4AF37" stroke-width="1" stroke-opacity="0.3" fill="none"/>
  <circle cx="0" cy="40" r="2" stroke="#8B5CF6" stroke-width="1" stroke-opacity="0.3" fill="none"/>
  <circle cx="80" cy="40" r="2" stroke="#8B5CF6" stroke-width="1" stroke-opacity="0.3" fill="none"/>
  <circle cx="40" cy="0" r="2" stroke="#8B5CF6" stroke-width="1" stroke-opacity="0.3" fill="none"/>
  <circle cx="40" cy="80" r="2" stroke="#8B5CF6" stroke-width="1" stroke-opacity="0.3" fill="none"/>
</svg>
